<?xml version="1.0" standalone="no"?>
<!DOCTYPE svg PUBLIC "-//W3C//DTD SVG 20010904//EN"
 "http://www.w3.org/TR/2001/REC-SVG-20010904/DTD/svg10.dtd">
<svg version="1.0" xmlns="http://www.w3.org/2000/svg"
 width="260.000000pt" height="260.000000pt" viewBox="0 0 260.000000 260.000000"
 preserveAspectRatio="xMidYMid meet">
<metadata>
Created by potrace 1.11, written by Peter Selinger 2001-2013
</metadata>
<g transform="translate(0.000000,260.000000) scale(0.100000,-0.100000)"
fill="#000000" stroke="none">
<path d="M1658 2023 l-98 -36 0 -448 0 -449 105 0 105 0 0 200 c0 219 6 250
55 288 40 31 114 30 143 -1 36 -38 42 -81 42 -289 l0 -198 106 0 105 0 -3 258
-3 258 -30 59 c-44 86 -100 119 -204 120 -65 0 -83 -4 -123 -27 -25 -15 -55
-40 -67 -55 l-20 -28 -1 193 c0 105 -3 192 -7 191 -5 0 -52 -17 -105 -36z"/>
<path d="M1045 1791 c-22 -10 -57 -37 -77 -59 -21 -23 -39 -42 -41 -42 -2 0
-1 16 1 37 4 32 2 35 -14 29 -11 -5 -48 -18 -84 -31 -36 -13 -73 -26 -83 -30
-16 -7 -17 -33 -15 -392 l3 -384 95 -40 c52 -21 97 -39 100 -39 3 0 4 140 2
312 -2 194 1 332 8 364 14 67 52 104 113 111 39 5 48 2 78 -25 l34 -30 5 -417
5 -417 103 -43 103 -43 -3 491 c-3 540 -2 533 -66 601 -60 64 -182 86 -267 47z"/>
<path d="M465 1595 l-90 -33 0 -247 0 -247 93 -39 c50 -21 92 -36 92 -34 2 54
0 628 -2 630 -2 1 -43 -13 -93 -30z"/>
</g>
</svg>
